<svg width="60" height="60" viewBox="0 0 83 69" fill="none" xmlns="http://www.w3.org/2000/svg">
<path d="M19.2478 8.936C17.7971 7.16533 16.0051 6.28 13.8718 6.28C12.9331 6.28 12.0584 6.45067 11.2478 6.792C10.4584 7.13333 9.77575 7.60267 9.19975 8.2C8.62375 8.776 8.16508 9.46933 7.82375 10.28C7.50375 11.0907 7.34375 11.9653 7.34375 12.904C7.34375 13.864 7.50375 14.7493 7.82375 15.56C8.16508 16.3707 8.62375 17.0747 9.19975 17.672C9.79708 18.2693 10.4904 18.7387 11.2798 19.08C12.0691 19.4213 12.9224 19.592 13.8398 19.592C15.8451 19.592 17.6478 18.7387 19.2478 17.032V24.456L18.6078 24.68C17.6478 25.0213 16.7518 25.2667 15.9198 25.416C15.0878 25.5867 14.2664 25.672 13.4558 25.672C11.7918 25.672 10.1918 25.3627 8.65575 24.744C7.14108 24.104 5.79708 23.2187 4.62375 22.088C3.47175 20.936 2.54375 19.5813 1.83975 18.024C1.13575 16.4453 0.78375 14.728 0.78375 12.872C0.78375 11.016 1.12508 9.32 1.80775 7.784C2.51175 6.22667 3.43975 4.89333 4.59175 3.784C5.76508 2.65333 7.11975 1.77867 8.65575 1.16C10.1918 0.519999 11.8024 0.199999 13.4878 0.199999C14.4478 0.199999 15.3864 0.306665 16.3038 0.519999C17.2424 0.711999 18.2238 1.02133 19.2478 1.448V8.936ZM30.5188 10.184H39.5748V0.872H45.8468V25H39.5748V15.048H30.5188V25H24.2468V0.872H30.5188V10.184ZM64.631 6.184H57.175V10.216H64.215V15.528H57.175V19.688H64.631V25H50.903V0.872H64.631V6.184ZM75.425 0.872V19.688H82.945V25H69.153V0.872H75.425ZM26.2448 50.048C25.5621 49.4933 24.8794 49.088 24.1968 48.832C23.5141 48.5547 22.8528 48.416 22.2128 48.416C21.4021 48.416 20.7408 48.608 20.2288 48.992C19.7168 49.376 19.4608 49.8773 19.4608 50.496C19.4608 50.9227 19.5888 51.2747 19.8448 51.552C20.1008 51.8293 20.4314 52.0747 20.8368 52.288C21.2634 52.48 21.7328 52.6507 22.2448 52.8C22.7781 52.9493 23.3008 53.1093 23.8128 53.28C25.8608 53.9627 27.3541 54.88 28.2928 56.032C29.2528 57.1627 29.7328 58.6453 29.7328 60.48C29.7328 61.7173 29.5194 62.8373 29.0928 63.84C28.6874 64.8427 28.0794 65.7067 27.2688 66.432C26.4794 67.136 25.4981 67.68 24.3248 68.064C23.1728 68.4693 21.8608 68.672 20.3888 68.672C17.3381 68.672 14.5114 67.7653 11.9088 65.952L14.5968 60.896C15.5354 61.728 16.4634 62.3467 17.3808 62.752C18.2981 63.1573 19.2048 63.36 20.1008 63.36C21.1248 63.36 21.8821 63.1253 22.3728 62.656C22.8848 62.1867 23.1408 61.6533 23.1408 61.056C23.1408 60.6933 23.0768 60.384 22.9488 60.128C22.8208 59.8507 22.6074 59.6053 22.3088 59.392C22.0101 59.1573 21.6154 58.944 21.1248 58.752C20.6554 58.56 20.0794 58.3467 19.3968 58.112C18.5861 57.856 17.7861 57.5787 16.9968 57.28C16.2288 56.96 15.5354 56.544 14.9168 56.032C14.3194 55.52 13.8288 54.88 13.4448 54.112C13.0821 53.3227 12.9008 52.3307 12.9008 51.136C12.9008 49.9413 13.0928 48.864 13.4768 47.904C13.8821 46.9227 14.4368 46.0907 15.1408 45.408C15.8661 44.704 16.7408 44.16 17.7648 43.776C18.8101 43.392 19.9728 43.2 21.2528 43.2C22.4474 43.2 23.6954 43.3707 24.9968 43.712C26.2981 44.032 27.5461 44.512 28.7408 45.152L26.2448 50.048ZM47.4123 49.184H39.9563V53.216H46.9963V58.528H39.9563V62.688H47.4123V68H33.6843V43.872H47.4123V49.184ZM57.7583 56.416L48.9582 43.872H56.4463L60.9263 50.464L65.3743 43.872H72.8623L64.0303 56.416V68H57.7583V56.416Z" fill="#fff"/>
</svg>
